<?xml version="1.0" encoding="UTF-8"?> <svg xmlns="http://www.w3.org/2000/svg" id="Layer_1" viewBox="0 0 113.18 61.67"><defs><style> .cls-1, .cls-2 { fill: #464e7e; } .cls-3, .cls-4 { fill: none; } .cls-4 { stroke: #bb4c4d; stroke-width: 3.8px; } .cls-4, .cls-2 { stroke-miterlimit: 10; } .cls-2 { stroke: #464e7e; stroke-width: 2px; } </style></defs><path class="cls-3" d="M100.68,51.58c.43,2.63.86,5.36,1.29,8.19"></path><line class="cls-2" x1="39.87" y1="30.29" x2="53.98" y2="30.29"></line><line class="cls-2" x1="70.38" y1="30.29" x2="83.86" y2="30.29"></line><path class="cls-4" d="M19.04,9.3c1.78-5.06,3.45-7.52,5.01-7.39,7.3.62,9.21,57.86,15.38,57.86S48.62,1.91,54.82,1.91s9.18,57.86,15.38,57.86S78.29,2.52,85.59,1.91c1.56-.13,3.23,2.34,5.02,7.42"></path><line class="cls-2" x1="53.98" y1="30.29" x2="70.38" y2="30.29"></line><path class="cls-3" d="M8.67,59.77c.44-2.84.87-5.58,1.29-8.21"></path><path class="cls-1" d="M23.67,17.13H4.51v10.71h17.91v3.79H4.51v11.81h19.39v3.94H0V13.2h23.67v3.94Z"></path><path class="cls-1" d="M107.47,23.23c-.48-4.64-3.31-6.96-8.5-6.96-2.46,0-4.37.5-5.71,1.49-1.34.99-2.02,2.38-2.02,4.18,0,.64.1,1.2.29,1.68.19.48.52.9.98,1.27.46.37.9.68,1.32.94s1.07.51,1.97.77c.9.26,1.62.44,2.16.55s1.39.3,2.54.55c1.41.29,2.58.55,3.5.79.93.24,2.03.63,3.31,1.18,1.28.54,2.3,1.14,3.05,1.8s1.41,1.53,1.97,2.62c.56,1.09.84,2.32.84,3.7,0,2.4-.67,4.41-2.02,6.02-1.34,1.62-2.98,2.74-4.9,3.38-1.92.64-4.05.96-6.38.96-4.29,0-7.72-1.02-10.3-3.05s-3.86-5.03-3.86-9h4.37c.1,2.91,1.07,5.03,2.93,6.36s4.27,1.99,7.25,1.99c2.34,0,4.34-.49,6-1.46,1.66-.98,2.5-2.57,2.5-4.78,0-1.02-.22-1.9-.67-2.62-.45-.72-1.15-1.31-2.11-1.78-.96-.46-1.92-.84-2.88-1.13-.96-.29-2.22-.61-3.79-.96-.22-.03-.38-.06-.48-.1-3.52-.8-5.83-1.44-6.91-1.92-3.33-1.44-4.99-3.92-4.99-7.44,0-3.26,1.21-5.71,3.62-7.32s5.34-2.42,8.76-2.42c3.74,0,6.74.9,8.98,2.69,2.24,1.79,3.42,4.46,3.55,8.02h-4.37Z"></path><line class="cls-2" x1="25.71" y1="30.29" x2="39.87" y2="30.29"></line></svg> 